<svg width="721" height="150" viewBox="0 0 721 150" fill="none" xmlns="http://www.w3.org/2000/svg">
<path d="M196.786 114.56C192.9 114.319 188.286 114.198 182.943 114.198H181V33.7264C183.51 33.9274 185.291 34.0278 186.343 34.0278H188.832C192.03 34.0278 194.681 33.8671 196.786 33.5456V65.674H225.322V33.7264C228.682 33.9274 231.94 34.0278 235.097 34.0278C238.295 34.0278 240.298 33.8671 241.108 33.5456V114.56C239.165 114.319 235.32 114.198 229.572 114.198H225.322V80.1408H196.786V114.56Z" fill="#224E73"/>
<path d="M257.076 83.0341C257.076 78.6137 257.825 74.3942 259.322 70.3757C260.861 66.3169 263.046 62.7806 265.88 59.7667C272.073 53.2566 280.107 50.0016 289.984 50.0016C299.819 50.0016 307.631 53.0758 313.42 59.2242C318.965 65.0913 321.738 72.7064 321.738 82.0697C321.738 91.4329 318.884 99.1887 313.177 105.337C307.146 111.847 299.152 115.102 289.194 115.102C278.913 115.102 270.858 111.907 265.03 105.518C259.727 99.6911 257.076 92.1964 257.076 83.0341ZM271.83 82.6725C271.83 85.2042 272.255 87.6555 273.105 90.0264C273.955 92.3974 275.169 94.4267 276.748 96.1145C280.107 99.7714 284.519 101.6 289.984 101.6C295.043 101.6 299.03 99.8116 301.944 96.2351C304.778 92.7791 306.195 88.2783 306.195 82.7327C306.195 77.1068 304.737 72.5658 301.823 69.1098C298.706 65.4128 294.436 63.5642 289.012 63.5642C283.507 63.5642 279.197 65.5333 276.08 69.4715C273.246 73.0882 271.83 77.4885 271.83 82.6725Z" fill="#224E73"/>
<path d="M350.213 112.932V130.654C350.213 134.11 350.294 136.36 350.456 137.405H335.338V51.2072H350.213V55.1253C355.111 51.7095 359.806 50.0016 364.299 50.0016C368.792 50.0016 372.779 50.6245 376.26 51.8702C379.741 53.116 382.797 55.0449 385.428 57.6569C391.216 63.3231 394.11 71.4004 394.11 81.8888C394.11 88.8409 392.471 95.0496 389.192 100.515C386.399 105.136 382.534 108.833 377.595 111.606C373.224 114.057 368.488 115.283 363.388 115.283C358.288 115.283 353.896 114.499 350.213 112.932ZM350.213 97.7421C353.289 100.314 357.276 101.6 362.174 101.6C370.188 101.6 375.369 97.7621 377.717 90.0867C378.526 87.4746 378.931 84.6817 378.931 81.708C378.931 78.6941 378.648 76.3031 378.081 74.5349C377.515 72.7265 376.766 71.1794 375.835 69.8935C374.944 68.5673 373.932 67.4823 372.799 66.6384C371.666 65.7543 370.512 65.0511 369.338 64.5287C367.274 63.6044 365.149 63.1423 362.963 63.1423C360.777 63.1423 358.511 63.6446 356.163 64.6492C353.815 65.6539 351.832 67.0001 350.213 68.6879V97.7421Z" fill="#224E73"/>
<path d="M428.293 115.102C416.878 115.102 408.277 113.033 402.489 108.894C402.57 107.688 402.691 106.322 402.853 104.795L403.399 100.455C403.723 97.6014 403.926 95.8332 404.007 95.1501C404.087 94.4267 404.148 94.045 404.189 94.0048C404.229 93.9244 404.553 94.2459 405.16 94.9692C405.767 95.6524 406.921 96.4963 408.621 97.5009C410.321 98.5056 412.284 99.3897 414.51 100.153C419.327 101.801 424.346 102.625 429.568 102.625C436.57 102.625 440.071 100.314 440.071 95.6926C440.071 94.2057 439.403 93.1006 438.068 92.3773C435.68 91.1717 432.158 90.2675 427.503 89.6647C422.889 89.0218 419.104 88.0975 416.15 86.8919C413.195 85.6864 410.786 84.2397 408.924 82.5519C405.484 79.3772 403.764 75.218 403.764 70.0743C403.764 63.8053 406.192 58.8826 411.049 55.3061C415.866 51.7698 422.525 50.0016 431.025 50.0016C439.444 50.0016 446.629 52.3725 452.579 57.1144C452.295 58.1593 451.992 59.1639 451.668 60.1284C450.737 62.7806 450.049 64.6894 449.604 65.8548L448.207 69.4112C448.126 69.7327 448.065 69.8935 448.025 69.8935C447.944 69.8935 447.62 69.4715 447.054 68.6276C444.503 65.6941 440.537 63.7652 435.153 62.8409C433.494 62.5194 431.794 62.3587 430.053 62.3587C422.687 62.3587 419.003 64.5689 419.003 68.9893C419.003 70.5163 419.772 71.6817 421.31 72.4854C424.184 74.0125 428.11 75.1377 433.089 75.861C438.108 76.5844 441.913 77.5689 444.504 78.8146C447.094 80.0202 449.179 81.487 450.757 83.215C453.671 86.3494 455.129 90.5086 455.129 95.6926C455.129 101.359 452.842 105.96 448.268 109.496C443.492 113.234 436.833 115.102 428.293 115.102Z" fill="#224E73"/>
<path d="M497.386 100.937C502.608 100.937 506.19 99.5906 508.133 96.8982H508.619L508.801 110.883C506.817 112.852 503.134 114.158 497.751 114.801C496.293 115.002 494.472 115.102 492.286 115.102C490.141 115.102 487.793 114.7 485.243 113.897C482.734 113.093 480.589 111.787 478.808 109.979C475.124 106.241 473.282 100.394 473.282 92.4376V65.0712H464.114C464.074 63.9058 464.054 62.7203 464.054 61.5148V52.2319C464.054 51.5487 464.074 51.2072 464.114 51.2072H473.282V34.0278H488.158V51.2072H504.854V65.0712H488.158V89.6647C488.158 95.9739 489.918 99.5705 493.44 100.455C494.573 100.776 495.889 100.937 497.386 100.937Z" fill="#224E73"/>
<path d="M563.08 110.461C557.332 113.555 552.131 115.102 547.476 115.102C542.821 115.102 538.835 114.68 535.515 113.836C532.196 112.952 529.383 111.666 527.076 109.979C522.381 106.563 520.033 101.62 520.033 95.1501C520.033 89.3634 522.907 84.5411 528.655 80.6833C534.888 76.504 543.348 74.4143 554.034 74.4143L556.462 74.4746C556.948 74.5148 557.494 74.555 558.101 74.5952C558.709 74.5952 559.255 74.6353 559.741 74.7157C559.417 68.286 556.624 64.5287 551.362 63.4437C549.622 63.082 547.76 62.9012 545.776 62.9012C543.833 62.9012 541.911 63.082 540.008 63.4437C538.146 63.7652 536.325 64.2072 534.544 64.7698C530.618 66.0155 527.805 67.4421 526.105 69.0496L525.922 68.929L524.101 55.6075C531.265 51.8702 539.098 50.0016 547.598 50.0016C560.793 50.0016 569.233 54.7234 572.916 64.167C574.09 67.1809 574.677 70.5766 574.677 74.3541V96.1748C574.677 100.836 576.336 104.011 579.655 105.699L568.666 115.705C566.359 114.499 564.497 112.751 563.08 110.461ZM559.801 85.5658C558.709 85.3649 557.575 85.2644 556.401 85.2644H553.973C545.027 85.2644 539.34 87.2335 536.912 91.1717C536.183 92.3371 535.819 93.5628 535.819 94.8487C535.819 96.1346 536.042 97.2799 536.487 98.2846C536.973 99.249 537.762 100.053 538.855 100.696C540.96 101.901 544.076 102.504 548.205 102.504C552.374 102.504 556.26 101.519 559.862 99.5504C559.822 99.1084 559.801 98.6462 559.801 98.164V85.5658Z" fill="#224E73"/>
<path d="M643.285 108.351C638.751 112.852 631.648 115.102 621.974 115.102C612.583 115.102 604.913 112.269 598.963 106.603C592.932 100.856 589.916 93.2212 589.916 83.6972C589.916 74.0125 592.891 66.0557 598.841 59.827C605.156 53.2767 613.595 50.0016 624.159 50.0016C631.648 50.0016 637.922 51.6291 642.981 54.8841L640.553 70.3154L640.128 70.2551C638.185 67.9244 636.141 66.3973 633.995 65.674C630.514 64.4684 627.033 63.8656 623.552 63.8656C620.071 63.8656 617.339 64.3077 615.356 65.1917C613.372 66.0758 611.672 67.3015 610.256 68.8687C607.422 72.0836 606.006 76.3432 606.006 81.6477C606.006 91.0512 609.284 97.1995 615.841 100.093C618.108 101.057 620.496 101.54 623.006 101.54C625.556 101.54 627.762 101.319 629.624 100.877C631.526 100.434 633.246 99.8317 634.785 99.0682C638.063 97.4608 640.289 95.5921 641.463 93.4623L641.888 93.6431L643.285 108.351Z" fill="#224E73"/>
<path d="M671.76 106.241C671.76 109.697 671.902 112.35 672.185 114.198H656.885V28H671.76V80.8038L699.507 51.2072H717.539L693.618 76.2227L707.278 94.7281C710.233 99.3897 712.459 102.805 713.957 104.975L717.964 110.581C719.179 112.149 720.19 113.354 721 114.198H711.407C707.845 114.198 704.789 114.499 702.239 115.102L683.296 87.6153L671.76 99.7915V106.241Z" fill="#224E73"/>
<circle cx="75" cy="75" r="75" fill="#224E73"/>
<circle cx="89.7656" cy="48.7344" r="7.73438" fill="#F4F6FC"/>
<rect x="52.5" y="41" width="12.6562" height="67.5" fill="#F4F6FC"/>
<rect x="83.4375" y="60.6875" width="12.6562" height="47.8125" fill="#F4F6FC"/>
<rect x="56.7188" y="93.5" width="12.6562" height="35.1562" transform="rotate(-90 56.7188 93.5)" fill="#F4F6FC"/>
</svg>
